<svg width="27" height="21" viewBox="0 0 27 21" fill="none" xmlns="http://www.w3.org/2000/svg">
<path d="M18.9686 9.77107C18.6912 7.00626 16.5306 5.00033 13.8266 5.00033C12.0251 5.00033 10.3757 5.87836 9.44753 7.28559C8.5278 5.86016 6.94595 5 5.17336 5C2.4697 5 0.308683 7.00593 0.031704 9.77074C0.00977952 9.89286 -0.0801108 10.5356 0.193214 11.5837C0.587124 13.0955 1.49699 14.4706 2.82378 15.5595L9.44315 21.0001L16.1761 15.5598C17.5029 14.4706 18.4128 13.0959 18.8067 11.5837C19.08 10.5359 18.9902 9.89319 18.9686 9.77107ZM18.0953 11.4321C17.7357 12.8129 16.9022 14.0709 15.6872 15.0677L9.44753 20.1098L3.31489 15.069C2.09772 14.0702 1.26459 12.8126 0.904663 11.4318C0.645954 10.4399 0.752288 9.87962 0.752653 9.87598L0.758135 9.84255C0.99565 7.42028 2.85229 5.66191 5.17336 5.66191C6.88602 5.66191 8.39369 6.61507 9.10916 8.14905L9.4457 8.87153L9.78224 8.14905C10.4864 6.63857 12.0737 5.66224 13.8269 5.66224C16.1476 5.66224 18.0046 7.42062 18.2469 9.87433C18.2476 9.87962 18.354 10.4403 18.0953 11.4321Z" fill="#1B1A17" stroke="#1B1A17" stroke-width="0.75"/>
<ellipse cx="20.5" cy="6.50004" rx="6.5" ry="6.50004" fill="#E6C8B4"/>
<text fill="#1B1A17" stroke="#1B1A17" xml:space="preserve" style="white-space: pre" font-family="Roboto" font-size="8" letter-spacing="0em"><tspan x="18.25" y="9.42188">1</tspan></text>
</svg>
